<svg viewBox="0 0 29.555763 57.786852" xmlns="http://www.w3.org/2000/svg">
  <g color="#000" fill="#fff">
    <path style="-inkscape-stroke:none" d="m46.595818 18.014803-4.345264-.178947c-.474359 11.806997-1.283236 21.623264-17.684932 37.461795-.01524.128099.188208.344622.272226.292455 16.979623-10.211054 21.233615-23.96114 21.75797-37.575303z" transform="translate(-23.241894 .86586585)"/>
    <g stroke-width=".956129" fill-rule="evenodd">
      <path style="-inkscape-stroke:none" d="m39.462918 18.954487 5.262194-16.9427735 6.96775 16.3155975c-4.088566-.611695-8.051805-.459699-12.229944.627176Z" transform="matrix(1.09146 .06636 -.07259 .9978 -27.390055 -2.60256805)"/>
      <path style="-inkscape-stroke:none" d="M44.682375.96265997c-.119221.00433647-.288258.52885683-.412844.90843373L39.007812 18.8125c-.139365.448199.305189.610547.751954.513672 3.98503-.725127 7.421566-.943351 11.669921-.601563.549635.08608.886694-.149242.701172-.583984L45.164062 1.8242187c-.148474-.3532203-.376086-.86924135-.481687-.86155873Zm.112547 2.42601193 5.984375 14.0136721c-3.45719-.368107-7.013357-.775143-10.50586.548828z" transform="matrix(1.09146 .06636 -.07259 .9978 -27.390055 -2.60256805)"/>
    </g>
  </g>
</svg>
