<svg viewBox="0 0 52.916665 52.916668" xmlns="http://www.w3.org/2000/svg">
  <g color="#000" fill="#fff">
    <path style="-inkscape-stroke:none" d="m46.602527 4.7883454-2.535156.1308594C45.977685 42.170338 21.675236 45.447721 10.425557 46.841176c-.197891.03002-.301431.172963-.252371.490604l.226269 1.77957c.05339.312956.219366.273072.376178.254221 12.462264-1.553336 38.242058-5.441143 35.826894-44.5772256z"/>
    <g fill-rule="evenodd">
      <path style="-inkscape-stroke:none" d="m39.462918 18.954487 5.262194-16.9427735 6.96775 16.3155975c-4.088566-.611695-8.051805-.459699-12.229944.627176Z" transform="rotate(3.805 52.524321 7.6655455)"/>
      <path style="-inkscape-stroke:none" d="M44.682375.96265997c-.119221.00433647-.288258.52885683-.412844.90843373L39.007812 18.8125c-.139365.448199.385122.806485.751954.513672 3.943844-1.344444 7.430643-1.30987 11.669921-.601563.394017.261093.886694-.149242.701172-.583984L45.164062 1.8242187c-.148474-.3532203-.376086-.86924135-.481687-.86155873Zm.112547 2.42601193 5.984375 14.0136721c-3.45719-.368107-7.013357-.775143-10.50586.548828z" transform="rotate(3.805 52.524321 7.6655455)"/>
    </g>
  </g>
</svg>
