<svg xmlns="http://www.w3.org/2000/svg" viewBox="0 0 24 24"><path fill="#ffb300" d="M20 17.25h-3.17a1 1 0 010-2H20a1.95 1.95 0 001.407-.581c.387-.38.593-.879.593-1.419 0-1.103-.897-2-2-2h-2a1 1 0 010-2h2c2.206 0 4 1.794 4 4a3.941 3.941 0 01-1.179 2.834A3.93 3.93 0 0120 17.25z"/><path fill="#de9c00" d="M24 13.25h-2c0 .54-.206 1.039-.593 1.419A1.95 1.95 0 0120 15.25h-3.17a1 1 0 000 2H20a3.93 3.93 0 002.821-1.166A3.941 3.941 0 0024 13.25z"/><path fill="#795548" d="M7.757 6a.749.749 0 01-.492-1.316c.168-.146.25-.329.232-.517-.018-.203-.155-.392-.372-.518-.644-.372-1.05-.982-1.116-1.674-.064-.673.206-1.326.742-1.791a.749.749 0 11.984 1.132c-.168.146-.25.329-.232.517.019.203.155.392.373.518.643.372 1.049.982 1.115 1.674.064.673-.206 1.326-.742 1.792A.755.755 0 017.757 6zM12.757 6a.749.749 0 01-.492-1.316c.168-.146.25-.329.232-.517-.019-.203-.155-.392-.373-.518-.643-.372-1.049-.982-1.115-1.674-.064-.673.206-1.326.742-1.792a.75.75 0 01.983 1.133c-.168.146-.25.329-.232.517.019.203.155.392.373.518.643.372 1.049.982 1.115 1.674.064.673-.206 1.326-.742 1.792a.75.75 0 01-.491.183z"/><path fill="#694a3f" d="M13.25 4.22c0 .37-.16.74-.49 1.03l-.57.49a.748.748 0 01.08-1.06c.16-.14.25-.33.23-.51-.02-.21-.16-.39-.38-.52-.64-.37-1.04-.98-1.11-1.67-.07-.68.21-1.33.74-1.8.31-.27.79-.24 1.06.08l-.57.49c-.75.65-.62 1.74.26 2.25.49.29.75.75.75 1.22z"/><path fill="#ffc107" d="M10 21c-4.962 0-9-4.038-9-9V8.25a.75.75 0 01.75-.75h16.5a.75.75 0 01.75.75V12a9.046 9.046 0 01-1.276 4.634l-.07.099A9.041 9.041 0 0110 21z"/><path fill="#ffe082" d="M17.25 24H2.75A2.752 2.752 0 010 21.25v-1a.75.75 0 01.75-.75h18.5a.75.75 0 01.75.75v1A2.752 2.752 0 0117.25 24z"/><path fill="#dea806" d="M10 7.5H1.75a.75.75 0 00-.75.75V12a9 9 0 004.03 7.5H10z"/><path fill="#dec371" d="M10 19.5H.75a.75.75 0 00-.75.75v1A2.752 2.752 0 002.75 24H10z"/><path fill="#694a3f" d="M8.25 4.22c0 .37-.16.74-.49 1.03l-.57.49a.748.748 0 01.08-1.06c.16-.14.25-.33.23-.51-.02-.21-.16-.39-.38-.52-.64-.37-1.04-.98-1.11-1.67-.07-.68.21-1.33.74-1.8.31-.27.79-.24 1.06.08l-.57.49c-.75.65-.62 1.74.26 2.25.49.29.75.75.75 1.22z"/></svg>