<svg xmlns="http://www.w3.org/2000/svg" id="svg9" fill="none" class="tea" version="1.1" viewBox="0 0 71.942452 84"><path id="path2" stroke="var(--color)" stroke-width="4" d="M54.068689 34H5.9550494c-2.22864 0-4.02264 1.8118-3.95316 4.0394.21822 6.996.89706 9.4354 2.903 17.9606 3.1425 13.3556 9.3710596 21.7736 11.8971196 24.769.6839.811 1.69886 1.231 2.75974 1.231h20.38674c1.2344 0 2.395-.5682 3.0882-1.5896 2.2212-3.273 7.3306-11.554 11.8682-24.4104 2.9514-8.3624 3.168-11.1914 3.0882-18.1688-.0244-2.144-1.7804-3.8312-3.9244-3.8312z"/><path id="path4" stroke="var(--color)" stroke-width="3.8066" d="M58.641746 45.527088s11.37736-3.569486 11.397378 6.13529c.01207 5.808826-4.651813 10.7953-9.258049 12.470202-5.319587 1.93441-7.885399.629701-7.885399.629701"/><path id="teabag" fill="var(--color)" fill-rule="evenodd" stroke-width="2" d="M31.904889 44V34h-4v10h-4c-3.3138 0-6 2.6862-6 6v12c0 3.3138 2.6862 6 6 6h12c3.3138 0 6-2.6862 6-6V50c0-3.3138-3.036047-7.481976-6-6zm-10 6c0-1.1046.8954-2 2-2h12c1.1046 0 2 .8954 2 2v12c0 1.1046-.8954 2-2 2h-12c-1.1046 0-2-.8954-2-2z" clip-rule="evenodd"/><path id="steamL" stroke="var(--color)" stroke-linecap="round" stroke-linejoin="round" stroke-width="4" d="M33.904889 2s0 7-6 11-6 11-6 11"/><path id="steamR" stroke="var(--color)" stroke-linecap="round" stroke-linejoin="round" stroke-width="4" d="M41.904889 12s0 4.45454-4 7c-4 2.5454-4 7-4 7"/></svg>