<svg xmlns="http://www.w3.org/2000/svg" viewBox="0 0 70.834 7.8908"><g fill="var(--color)" stroke-width=".26458"><path d="M1.365 2.16q.07442 0 .07442-.0661v-.0661q0-.0744-.07442-.0827H.56298q-.10749 0-.19017-.0744-.07442-.0744-.07442-.1819 0-.11576.07442-.19017.08268-.0827.19017-.0827h.85163q.02481 0 .02481-.0165 0-.0661.04961-.11575.05788-.0579.12402-.0579h.14883q.03307 0 .01654-.0496-.02481-.0331-.02481-.0744 0-.0248-.01654-.0248H.30667q-.12402 0-.21497-.0827Q.00075.90338.00075.7793q0-.13229.09095-.22324.09095-.0909.21497-.0909h1.3891q.05788 0 .05788-.0579 0-.15709.11576-.28112.12402-.12402.28939-.12402h.09095q.16536 0 .28112.12402.12402.12403.12402.28112 0 .0579.05788.0579h2.1167q.05788 0 .05788-.0579 0-.15709.11576-.28112.12402-.12402.28939-.12402h.09095q.16536 0 .28112.12402.12402.12403.12402.28112 0 .0579.05788.0579h1.3891q.12402 0 .21498.0909.09095.0909.09095.22324 0 .12403-.09095.21498-.09095.0827-.21498.0827h-1.4139q-.03307 0-.03307.0413 0 .19017-.19017.26458-.06614.0331-.04961.0827v.0413q0 .0413.04134.0413h.87643q.19844 0 .339.14883.14056.14056.14056.33899.0083 2.0919.14056 2.0919.06615 0 .11576-.58705.0083-.12402.10749-.19017.10749-.0661.23151-.0165.14056.0661.22324.19843.09095.1323.07441.28112-.07441.6532-.32246.97566-.23978.31419-.59531.31419-.26458 0-.42168-.14883-.1571-.1571-.24805-.58704-.02481-.0662-.05788-.0165l-.0248.0331q-.11576.14883-.31419.17364-.19844.0165-.339-.10749-.04961-.0413-.1571-.13229-.10749-.0992-.1571-.14056-.04961-.0496-.08268.0165-.19844.339-.5209.63666-.1571.13229-.3638.12402-.20671-.0165-.3638-.16536l-.12402-.1323q-.01654-.0165-.01654.008 0 .19017-.19017.20671-1.2568.14883-3.1833.28112-.12402.008-.22324-.0744-.09922-.0909-.10749-.21497-.0083-.13229.07441-.22324.09095-.0992.21497-.10749.1571-.008.5209-.0248.3638-.0248.5457-.0413.05788 0 .05788-.0827v-.1819q0-.0744-.07442-.0744H.7284q-.14883 0-.25632-.10749t-.10749-.25631v-.0331q0-.0165-.0248-.0248-.12402.0413-.19844-.0744l-.09922-.14882q-.05788-.0909-.01654-.19844.04961-.11576.1571-.14883.53744-.16536.75241-.38861.01654-.008 0-.0331-.0083-.0248-.0248-.0248H.26538q-.10749 0-.19017-.0744-.07441-.0827-.07441-.19017 0-.10749.07441-.1819.08268-.0827.19017-.0827zm.07442 1.3891v-.31419q0-.0165-.02481-.0248-.01654-.008-.03307 0-.29766.23151-.7028.38861-.03307.0165.0083.0165h.678q.07442 0 .07442-.0661zm3.0262.1571q.0248-.0496-.02481-.091-.25632-.1571-.42168-.25632-.04961-.0331-.13229 0-.14883.0661-.83509.0744-.48783 0-.64492-.0165-.07441 0-.07441.0579v.0744q0 .0661.07441.0661h.95912q.10749 0 .1819.0744t.07441.1819q0 .10749-.07441.1819-.07441.0744-.1819.0744h-.95912q-.07441 0-.07441.0744v.11576q0 .0661.07441.0661.7276-.0579 1.141-.10748.06615-.008.12402.0413.05788.0496.05788.12402v.0165q.0083.008.01654 0 .50436-.339.71934-.75241zm-1.6288-.8847q0 .0909.03307.10748.03307.008.20671.008.1571 0 .2067-.0248.04961-.0248.05788-.1571 0-.0661-.06615-.0661H2.9195q-.07441 0-.08268.0744zm2.7864-.62012q-.07441 0-.07441.0744 0 .57051-.09922 1.0253-.01654.0662.04134.11576.30592.23978.63665.52917.03307.0165.04961-.0248-.06615-.53743-.09095-1.6454 0-.0744-.08268-.0744zm-2.9683-1.0997q0 .14056-.1571.14056h-.1819q-.01654 0-.02481.0248-.0083.0165.0083.0248.03307.0331.03307.10749 0 .0165.0248.0165h.98392q.10749 0 .1819.0827.08268.0744.08268.19017 0 .10749-.08268.1819-.07441.0744-.1819.0744h-.93431q-.07441 0-.07441.0827v.0661q0 .0661.07441.0661h.99219q.14056 0 .24805.10749.10749.0992.10749.23977 0 .0579.04961.0579.14056.008.23978.11576.09922.10748.08268.24804 0 .0661-.0083.0992 0 .0248.01654.008l.04961-.0744q.07441-.11576.20671-.14883.14056-.0331.25632.0331.04134.0248.04961-.0248.02481-.23978.02481-.55397 0-.0661-.07441-.0661h-.48783q-.13229 0-.23151-.091-.09095-.0992-.09095-.23151 0-.14056.09095-.23151.09922-.0992.23151-.0992h.52917q.03307 0 .03307-.0413 0-.14883.14056-.23151.04961-.0248.03307-.10749 0-.008-.0083-.0248v-.0248q0-.0413-.03307-.0413h-2.1828q-.01654 0-.01654.0248zm-1.1162 1.9844q-.01654.008-.0083.0331.0083.0165.02481.0165h.38861q.06615 0 .06615-.0744v-.29766q0-.0744-.06615-.0744h-.04961q-.07441 0-.10749.0661-.06615.14883-.24805.33073zm5.118 2.712H.88552q-.11576 0-.20671-.0827-.08268-.0827-.08268-.19844 0-.12402.08268-.20671.08268-.0827.20671-.0827h5.7712q.11576 0 .19844.0827.09095.0827.09095.20671 0 .11576-.09095.19844-.08268.0827-.19844.0827zm-.25632.89297q-.01654 0-.02481.0248-.0083.0165.0083.0248.21497.2067.62012.61185.10749.11575.07441.26458-.03307.1571-.17363.22324-.1819.0744-.37207.0331-.19017-.0413-.32246-.1819-.0083-.008-.02481-.0248-.01654-.008-.02481-.0165-.04961-.0496-.11576-.0579-2.7285.19017-5.3413.23151-.13229 0-.23151-.0827t-.10749-.22325q-.0083-.12402.07441-.22324.09095-.0992.21497-.0992.31419-.008.95912-.0248.06615 0 .11576-.0496l.35553-.38034q.01654-.0331-.02481-.0496H.33976q-.13229 0-.22324-.0909t-.09095-.22324q0-.13229.09095-.22325.09095-.0992.22324-.0992h6.8626q.13229 0 .22324.0992.09095.091.09095.22325 0 .13229-.09095.22324-.09095.0909-.22324.0909zm-.90124.35553q.01654 0 .0248-.0165.0083-.0248-.0083-.0331-.09095-.091-.28112-.26458-.04134-.0413-.11576-.0413h-1.8686q-.06614 0-.11576.0496-.0083.008-.32246.34726-.01654.0165-.0083.0331.0083.0248.02481.0248 1.356-.0413 2.6706-.0992zM15.875 2.32q0 .1571-.11576.28112-.11576.11576-.28939.11576h-2.6541q-.07441 0-.06614.0744.1571 1.3064.90124 2.3234t2.0009 1.7032q.14056.0827.1819.23978.04134.1571-.04961.30593-.09922.14882-.28112.19843-.17363.0496-.339-.0413-.96738-.5209-1.7115-1.3643t-1.1576-1.8769q-.0083-.0165-.02481-.0165-.01654 0-.02481.0165-.42168 1.0335-1.1824 1.8769-.76068.84336-1.7446 1.3643-.1571.0827-.339.0331-.1819-.0413-.28112-.19017-.09095-.14056-.05788-.29766.04134-.1571.1819-.24805 1.2568-.68626 1.9926-1.7032.74414-1.017.90951-2.3234.01654-.0744-.06615-.0744h-2.6541q-.16536 0-.28939-.11576-.11576-.12402-.11576-.28112 0-.16536.11576-.28938.11576-.12403.28939-.12403h2.6872q.07441 0 .08268-.0744V.68295q0-.19843.13229-.33072.14056-.1323.33073-.1323t.32246.1323q.14056.13229.14056.33072v1.1493q0 .0744.08268.0744h2.6872q.16536 0 .28112.12403.12402.12402.12402.28938zM17.413 2.41q-.16536 0-.28112-.10748-.11576-.11576-.11576-.28112 0-.17364.10749-.28112.11576-.10749.28939-.10749h3.7868q.06615 0 .06615-.0827V.74807q0-.1819.13229-.30593.13229-.13229.30592-.13229.1819 0 .30592.13229.13229.1323.13229.30593v.80202q0 .0744.07441.0827h1.356q.16536 0 .27285.10749.11576.10748.11576.28112 0 .16536-.11576.28112-.10749.10748-.27285.10748h-1.356q-.07441 0-.07441.0744v3.5471q0 .81029-.20671 1.017-.20671.20671-1.0253.20671-.5457 0-1.0087-.0496-.16536-.0165-.28112-.14056-.11576-.12403-.10749-.29766.0083-.15709.13229-.26458.13229-.11576.30592-.0992.53744.0496.87643.0496.28939 0 .3638-.0744.07441-.0744.07441-.37208v-2.621q0-.0165-.01654-.0248-.01654-.0165-.02481-.008-1.6371 1.6123-3.4561 2.7202-.14056.0827-.30592.0413-.1571-.0496-.23978-.19017-.08268-.14883-.04134-.31419.04134-.16537.1819-.24805 1.9761-1.1741 3.638-2.9022.01654-.0165 0-.0331-.0083-.0165-.02481-.0165zM25.285 1.8q-.16536-.0827-.22324-.25631-.04961-.17363.03307-.34727.08268-.15709.26458-.21497.19017-.0579.3638.0248.98392.4961 1.8025.97566.16536.091.21497.27285.04961.17363-.04961.34726-.09095.16537-.27285.21498-.17363.0413-.339-.0496-.82682-.47956-1.7942-.96739zm5.8456-.10748q.1819.0413.27285.19017.09922.14882.06615.32246-.98392 4.3408-5.8291 4.9444-.19017.0248-.33073-.0827-.14056-.11576-.16536-.30593-.0248-.1819.08268-.31419.10749-.14056.28112-.16536 2.1415-.28939 3.3817-1.3312 1.2485-1.0418 1.7281-2.9352.04134-.16537.19017-.25632.1571-.0992.32246-.0661zM32.982 3.84q-.1571 0-.28112-.11576-.11576-.12402-.11576-.28938 0-.17364.11576-.28939.11576-.11576.28112-.11576h5.7216q.2067 0 .339.14056.14056.14056.13229.34727-.19844 3.4727-4.8535 3.9026-.16536.008-.30592-.0992-.13229-.10749-.16536-.27286-.02481-.16536.07441-.28938.10749-.1323.26458-.14056 3.6132-.33073 4.0349-2.7202.0083-.0248-.02481-.0413-.0248-.0165-.04961-.0165zm.63665-2.9931h4.6137q.16536 0 .28112.12402.12402.11576.12402.27285 0 .16537-.12402.28939-.11576.12403-.28112.12403h-4.6137q-.16536 0-.28939-.11576-.11576-.12402-.11576-.29766 0-.15709.11576-.27285.12402-.12402.28939-.12402zM40.771 4.55q-.16536.0331-.30592-.0661-.14056-.10749-.17363-.28112-.02481-.16536.07441-.29765.09922-.14056.26458-.17364 1.5958-.28939 3.084-1.0087 1.4966-.71934 2.5549-1.7115.11576-.11575.28939-.10748.1819 0 .28939.12402.11576.13229.10749.31419-.0083.17364-.13229.29766-.89297.83509-2.1663 1.5296-.04961.0248-.03307.0909.0083.0331.0083.12403v3.6132q0 .19844-.14056.339t-.339.14056q-.19017 0-.33073-.14883-.14056-.14056-.14056-.33073v-3.266q0-.0744-.06615-.0496-1.3808.61185-2.8443.86817zM48.287 1.8q-.16536-.0827-.22324-.25631-.04961-.17363.03307-.34727.08268-.15709.26458-.21497.19017-.0579.3638.0248.98392.4961 1.8025.97566.16536.091.21497.27285.04961.17363-.04961.34726-.09095.16537-.27285.21498-.17363.0413-.339-.0496-.82682-.47956-1.7942-.96739zm5.8456-.10748q.1819.0413.27285.19017.09922.14882.06615.32246-.98392 4.3408-5.8291 4.9444-.19017.0248-.33073-.0827-.14056-.11576-.16536-.30593-.0248-.1819.08268-.31419.10749-.14056.28112-.16536 2.1415-.28939 3.3817-1.3312 1.2485-1.0418 1.7281-2.9352.04134-.16537.19017-.25632.1571-.0992.32246-.0661zM55.786 2.56q-.14883 0-.26458-.10749-.10749-.10748-.10749-.25631 0-.1571.10749-.26458.11576-.11576.26458-.11576h.95085q.07441 0 .07441-.0744v-.38861q0-.0661-.07441-.0661-.44648.0496-.75241.0661-.14883.008-.27285-.0909-.11576-.10749-.13229-.25632-.0083-.14882.08268-.26458.09922-.11575.24805-.13229 1.5544-.12402 2.5383-.33073.1571-.0331.29766.0496.14056.0744.17363.23151.04134.14883-.04134.28939-.08268.13229-.23978.16536-.57051.10749-.8599.14883-.07441.0165-.07441.0744v.50437q0 .0744.07441.0744h.90124q.14883 0 .25632.11576.11576.10748.11576.26458 0 .14883-.10749.25631-.10749.10749-.26458.10749h-.90124q-.07441 0-.07441.0661v.3638q0 .0744.07441.0827h.57878q.19844 0 .339.14056.14883.13229.14883.33073v1.0914q0 .19844-.14883.339-.14056.14056-.339.14056h-2.1911q-.19844 0-.339-.14056-.13229-.14056-.13229-.339v-1.0914q0-.19844.14056-.33073.14056-.14056.33073-.14056h.57051q.07441 0 .07441-.0827v-.3638q0-.0661-.07441-.0661zm2.158 1.1162h-1.3395q-.07441 0-.07441.0827v.58704q0 .0744.07441.0827h1.3395q.06615 0 .06615-.0827V3.7589q0-.0827-.06615-.0827zM61.5655.4847q-.03307.12402-.09922.28938-.01654.0661.04961.0661h.86816q.19844 0 .339.14883.14056.14056.14056.339v3.3073q0 .19844-.14883.339-.14056.14056-.33073.14056h-2.621q-.19844 0-.339-.14056t-.14056-.339v-3.3073q0-.19844.14056-.339.14883-.14883.339-.14883h.66146q.06615 0 .09922-.0661.01654-.0413.05788-.1819.04961-.14056.07441-.21497.05788-.19017.21497-.29766.16536-.10748.35553-.0827.1819.0165.28112.17363.10749.14883.05788.3142zm.41341 3.8365v-.38034q0-.0744-.08268-.0744h-1.6454q-.07441 0-.07441.0744v.38034q0 .0744.07441.0744h1.6454q.08268 0 .08268-.0744zm0-1.141v-.38034q0-.0744-.08268-.0744h-1.6454q-.07441 0-.07441.0744v.38034q0 .0744.07441.0744h1.6454q.08268 0 .08268-.0744zm-.08268-1.604h-1.6454q-.07441 0-.07441.0827v.38034q0 .0744.07441.0744h1.6454q.07441 0 .08268-.0744V1.6589q-.0083-.0827-.08268-.0827zm-5.7464 4.2995q.06615-.14056.21498-.19843.1571-.0662.31419-.008.1571.0661.21497.22324.06615.1571 0 .32246-.29766.66973-.71934 1.1906-.10749.13229-.28112.14056-.17363.0165-.30592-.0909-.13229-.0992-.14883-.26459-.01654-.16536.08268-.28939.37207-.47129.62838-1.0253zm1.232-.33073q.14056-.13229.32246-.13229.19017 0 .32246.13229.14056.1323.14056.33073v.61185q0 .38861.04134.47129.04961.0744.29766.0992.30592.0248.80202.0248.47129 0 .80202-.0248.35553-.0331.47129-.12402.11576-.0909.16536-.41341.0248-.18191.1571-.28112.14056-.10749.31419-.0744.1819.0331.28939.17363.11576.14056.09922.32247-.03307.3638-.09922.56223-.05788.19844-.21497.32247-.14883.12402-.339.16536-.1819.0413-.56224.0744-.48783.0413-1.0831.0413-.48782 0-1.0831-.0331-.46302-.0248-.65319-.11575-.1819-.0909-.25632-.3142-.06615-.21497-.06615-.73587v-.75241q0-.19843.13229-.33073zm1.4552.25632q-.11576-.0827-.14056-.22324-.01654-.14883.08268-.25632.10749-.11575.27285-.13229.16536-.0248.29766.0579.47129.32246.82682.61185.11576.0992.12402.25631.0083.1571-.09922.27285-.09922.11576-.25632.12403-.1571.008-.27285-.0909-.37207-.3142-.83509-.62012zm3.4727-.19017q.49609.73587.79375 1.3064.07441.14883.01654.30592-.05788.1571-.21497.22325-.1571.0661-.31419.008-.1571-.0496-.23978-.19844-.31419-.59531-.76895-1.2733-.08268-.13229-.04961-.28939.04134-.15709.1819-.23151.1571-.0827.32246-.0331.17363.0413.27285.1819zM69.943 6.07q-.0744-2.373-.90124-4.2995-.0661-.15709 0-.31419t.22325-.21498q.16536-.0579.33899.0248.17364.0744.24805.23151.90951 1.9926.98392 4.5806.008.19017-.12402.31419-.1323.12403-.32247.12403-.1819 0-.31419-.12403-.12402-.13229-.13229-.32246zm-4.0514 1.3395q-.69453 0-1.2816-.96739-.57878-.96738-.57878-2.3316 0-1.2733.28112-2.5135.04134-.19017.19844-.28939.16536-.10749.35553-.0827.16536.0165.26458.16536.09922.14056.05788.3142-.27285 1.1989-.27285 2.406 0 1.017.34727 1.7115.34726.69453.69453.69453.21497 0 .5457-.40515.33073-.41341.66972-1.1824.0662-.16537.23151-.23151.16537-.0744.32246-.0165.16537.0661.23978.23151.0827.16536.0165.33073-.42168 1.0253-1.0087 1.5958-.57878.57051-1.0831.57051z"/></g></svg>