<svg xmlns="http://www.w3.org/2000/svg" width="512" height="512" viewBox="0 0 135.467 135.467"><path opacity=".876" fill="none" stroke="#8a8a8a" stroke-width="1.323" stroke-dasharray="3.96875,1.32292" d="M14.269 14.269h106.929v106.929H14.269z"/><g aria-label="これは 何？" style="line-height:1.25;-inkscape-font-specification:'Noto Sans CJK JP Medium'" font-weight="500" font-size="32.049" font-family="Noto Sans CJK JP" fill="#8a8a8a" stroke-width=".332" text-anchor="middle"><path d="M33.768 45.416c2.018.178 4.19.28 6.796.28 2.35 0 5.288-.178 7.025-.306v-2.657c-1.89.204-4.598.358-7.05.358-2.581 0-4.931-.102-6.77-.307zm-1.098 7.562c-.23.996-.511 2.197-.511 3.576 0 3.296 2.938 5.11 8.354 5.11 3.602 0 6.719-.358 8.711-.869L49.2 58.01c-2.044.588-5.289.971-8.763.971-3.858 0-5.62-1.252-5.62-3.014 0-.92.178-1.789.46-2.76zM77.837 56.375c-1.15 1.227-2.452 1.967-3.576 1.967-.792 0-1.15-.562-1.15-1.354 0-2.58.894-6.667.894-9.222 0-2.095-1.226-3.551-3.755-3.551-2.478 0-5.57 2.222-7.537 4.01l.077-1.047c.409-.638.869-1.354 1.2-1.814l-.894-1.073c.18-1.635.384-2.989.511-3.627l-2.989-.102c.128.69.128 1.405.128 2.043 0 .281-.051 1.099-.128 2.197-1.2.18-2.529.333-3.32.384-.716.025-1.253.05-1.891.025l.255 2.606c1.533-.204 3.628-.485 4.803-.639l-.153 2.172c-1.354 2.044-4.113 5.697-5.518 7.46l1.584 2.222c1.073-1.456 2.554-3.653 3.73-5.39-.052 2.81-.077 4.266-.103 6.617 0 .408-.05 1.226-.076 1.66h2.759c-.051-.51-.128-1.252-.154-1.712-.127-2.299-.102-4.113-.102-6.31 0-.792.026-1.66.077-2.554 2.197-2.376 5.11-4.752 7.077-4.752 1.2 0 1.89.613 1.89 1.967 0 2.401-.945 6.361-.945 9.146 0 2.248 1.226 3.474 2.989 3.474 1.865 0 3.423-.766 4.7-2.018zM83.1 41.175c-.026.664-.128 1.456-.204 2.095-.307 2.018-1.124 6.82-1.124 10.602 0 3.423.485 6.259.996 8.022l2.248-.154c-.025-.306-.025-.69-.051-.945 0-.307.051-.818.128-1.15.28-1.303 1.15-3.883 1.814-5.773l-1.303-1.022c-.384.92-.92 2.146-1.278 3.193a18.822 18.822 0 01-.179-2.657c0-2.708.767-7.97 1.227-10.014.102-.46.332-1.508.51-1.942zm12.825 15.711c0 1.584-.588 2.53-2.453 2.53-1.61 0-2.733-.588-2.733-1.763 0-1.048 1.15-1.789 2.835-1.789.818 0 1.584.128 2.35.332zm7.383 1.15c-1.277-1.15-2.861-2.453-4.956-3.296-.077-1.941-.23-4.215-.281-6.744a50.047 50.047 0 004.19-.46v-2.478c-1.303.255-2.709.434-4.19.562.025-1.15.05-2.223.076-2.861.026-.511.077-1.048.154-1.559h-2.887c.102.486.153 1.175.153 1.61 0 .638.026 1.711.026 2.963-.716.026-1.405.051-2.12.051a49.07 49.07 0 01-4.37-.204l.026 2.401c1.482.077 2.861.154 4.318.154.715 0 1.43-.026 2.146-.051.05 1.967.153 4.138.23 5.901a13.02 13.02 0 00-2.044-.153c-3.372 0-5.39 1.737-5.39 4.062 0 2.427 1.992 3.857 5.415 3.857 3.526 0 4.65-1.992 4.65-4.343v-.076c1.175.715 2.325 1.66 3.5 2.759zM47.36 71.474c-1.304 3.679-3.45 7.332-5.723 9.682.383.588 1.073 1.865 1.277 2.427a25.44 25.44 0 002.12-2.657v13.95h2.35V77.093c.844-1.584 1.61-3.27 2.198-4.956zm8.66 9.887v4.803h-3.704V81.36zm2.197 6.846v-8.916h-8.15v10.654h2.249v-1.738zm7-14.408H49.505v2.273H61.13v15.789c0 .51-.178.638-.715.664-.51 0-2.35.025-4.19-.051.358.69.716 1.762.818 2.427 2.401.025 4.113-.051 5.11-.435.996-.383 1.353-1.073 1.353-2.58V76.072h1.712zM77.352 86.547h2.606c-.537-3.73 5.34-4.369 5.34-8.175 0-3.143-2.505-4.931-6.132-4.931-2.76 0-4.88 1.2-6.515 3.04l1.686 1.558c1.303-1.456 2.836-2.171 4.497-2.171 2.35 0 3.602 1.098 3.602 2.759 0 2.708-5.774 3.756-5.084 7.92zm-.97 4.266c0 1.354.995 2.248 2.298 2.248s2.325-.894 2.325-2.248-1.022-2.222-2.325-2.222c-1.303 0-2.299.868-2.299 2.222z" style="-inkscape-font-specification:'Noto Sans CJK JP Medium';text-align:center"/></g></svg>