<svg xmlns="http://www.w3.org/2000/svg" viewBox="0 0 135.46666 135.46667"><path fill="none" stroke="#8a8a8a" stroke-dasharray="3.96875,1.32292" stroke-width="1.32292" d="M.66145831.66145998h134.14374v134.14374H.66145831z" opacity=".875776"/><g fill="#8a8a8a" stroke-width=".264583" aria-label="これは 何？" font-family="Noto Sans CJK JP" font-size="32.0493" font-weight="500" style="line-height:1.25;-inkscape-font-specification:'Noto Sans CJK JP Medium'" text-anchor="middle"><path d="M25.123849 39.735476c2.531895.224345 5.256086.352542 8.525115.352542 2.948535 0 6.634205-.224345 8.813557-.384592v-3.333127c-2.371648.256394-5.768874.44869-8.845607.44869-3.236979 0-6.185515-.128197-8.493065-.384591zm-1.378119 9.486593c-.288444 1.249923-.640986 2.75624-.640986 4.486902 0 4.13436 3.685669 6.40986 10.480121 6.40986 4.518951 0 8.428966-.44869 10.928812-1.089676l-.03205-3.493374c-2.563944.737134-6.634205 1.217874-10.99291 1.217874-4.839444 0-7.050846-1.570416-7.050846-3.781818 0-1.153775.224345-2.243451.576887-3.461324zM80.408833 53.484626c-1.442219 1.538366-3.076733 2.467796-4.486902 2.467796-.993529 0-1.442219-.705085-1.442219-1.698613 0-3.236979 1.121726-8.364867 1.121726-11.569798 0-2.628042-1.538367-4.454852-4.711248-4.454852-3.108782 0-6.986747 2.788289-9.454543 5.03174.03205-.44869.0641-.865331.09615-1.314022.512788-.801232 1.089676-1.698612 1.506317-2.2755l-1.121726-1.346071c.224345-2.051155.48074-3.749768.640986-4.551l-3.749768-.128198c.160246.865332.160246 1.762712.160246 2.563945 0 .352542-.0641 1.37812-.160246 2.756239-1.506317.224346-3.172881.416641-4.166409.48074-.897381.03205-1.570416.0641-2.371648.03205l.320493 3.269029c1.922958-.256394 4.551-.608937 6.025268-.801233-.0641.897381-.128197 1.826811-.192296 2.724191-1.698613 2.563944-5.159937 7.146994-6.922649 9.358396l1.987057 2.788289c1.346071-1.82681 3.20493-4.58305 4.679198-6.762402-.0641 3.525423-.09615 5.352233-.128197 8.300769 0 .512788-.0641 1.538366-.09615 2.083204h3.461324c-.0641-.640986-.160246-1.570416-.192295-2.147303-.160247-2.884437-.128198-5.159937-.128198-7.916177 0-.993529.03205-2.083205.09615-3.20493 2.75624-2.980585 6.40986-5.96117 8.877657-5.96117 1.506317 0 2.371648.769183 2.371648 2.467796 0 3.012634-1.185824 7.980276-1.185824 11.47365 0 2.820338 1.538366 4.358705 3.749768 4.358705 2.339599 0 4.294606-.96148 5.897071-2.531895zM87.010928 34.415292c-.03205.833282-.160247 1.82681-.256394 2.628042-.384592 2.531895-1.41017 8.557164-1.41017 13.30046 0 4.294607.608937 7.852079 1.249923 10.063481l2.820339-.192296c-.03205-.384591-.03205-.865331-.0641-1.185824 0-.384592.0641-1.025578.160246-1.442219.352543-1.634514 1.442219-4.871493 2.275501-7.243142l-1.634515-1.281972c-.480739 1.153775-1.153774 2.692142-1.602465 4.006163-.160246-1.153775-.224345-2.211402-.224345-3.333127 0-3.397226.961479-9.999382 1.538367-12.563326.128197-.576888.416641-1.890909.640986-2.435747zm16.088752 19.71032c0 1.987057-.73714 3.172881-3.07674 3.172881-2.019102 0-3.429271-.737134-3.429271-2.211402 0-1.314021 1.442219-2.243451 3.557471-2.243451 1.02558 0 1.98706.160246 2.94854.416641zm9.26225 1.442218c-1.60247-1.442218-3.58953-3.076732-6.21757-4.134359-.0962-2.435747-.28844-5.288135-.35254-8.461016 1.82681-.128197 3.62157-.320493 5.25608-.576887v-3.108783c-1.63451.320494-3.39722.544839-5.25608.705085.032-1.442218.0641-2.788289.0961-3.589522.032-.640986.0961-1.314021.19229-1.955007h-3.62157c.1282.608937.1923 1.474268.1923 2.019106 0 .801233.0321 2.147303.0321 3.717719-.89738.03205-1.76272.0641-2.6601.0641-1.890905 0-3.653616-.09615-5.480426-.256395l.03205 3.012634c1.858859.09615 3.589522.192296 5.416332.192296.897385 0 1.794765-.03205 2.692145-.0641.0641 2.467796.19229 5.191986.28844 7.403388-.80123-.128197-1.66656-.192296-2.56394-.192296-4.230512 0-6.762407 2.179353-6.762407 5.095839 0 3.044684 2.499846 4.839445 6.794457 4.839445 4.4228 0 5.83297-2.499846 5.83297-5.448381v-.09615c1.47427.89738 2.91648 2.083204 4.39075 3.461324zM42.174047 72.425763c-1.634514 4.615099-4.326656 9.198149-7.179043 12.146685.480739.737134 1.34607 2.339599 1.602465 3.044684.89738-.993529 1.82681-2.115254 2.660092-3.333128v17.498916h2.948535V79.476609c1.057627-1.987057 2.019106-4.10231 2.75624-6.217564zM53.03876 84.828842v6.025269h-4.647148v-6.025269zm2.75624 8.589213V82.232849H45.571273v13.364559h2.820339v-2.179353zm8.781509-18.075806H44.866188v2.852388H59.44862v19.806468c0 .640986-.224345.801233-.89738.833282-.640986 0-2.948536.03205-5.256085-.0641.44869.865332.89738 2.211402 1.025577 3.044682 3.012635.032 5.159938-.0641 6.40986-.54484 1.249923-.48074 1.698613-1.346067 1.698613-3.236976V78.194637h2.147304zM79.799866 91.334851h3.269028c-.673035-4.679198 6.698304-5.480431 6.698304-10.255777 0-3.942064-3.140831-6.185515-7.691832-6.185515-3.461325 0-6.121417 1.506317-8.172572 3.813867l2.115254 1.955007c1.634514-1.82681 3.557473-2.72419 5.640677-2.72419 2.948536 0 4.518952 1.37812 4.518952 3.461324 0 3.397226-7.243142 4.711247-6.377811 9.935284zm-1.217874 5.352233c0 1.698613 1.249923 2.820338 2.884437 2.820338 1.634515 0 2.916487-1.121725 2.916487-2.820338s-1.281972-2.788289-2.916487-2.788289c-1.634514 0-2.884437 1.089676-2.884437 2.788289z" style="-inkscape-font-specification:'Noto Sans CJK JP Medium';text-align:center"/></g></svg>