<?xml version="1.0" standalone="no"?>
<!DOCTYPE svg PUBLIC "-//W3C//DTD SVG 20010904//EN"
 "http://www.w3.org/TR/2001/REC-SVG-20010904/DTD/svg10.dtd">
<svg version="1.0" xmlns="http://www.w3.org/2000/svg"
 width="260.000000pt" height="260.000000pt" viewBox="0 0 260.000000 260.000000"
 preserveAspectRatio="xMidYMid meet">
<metadata>
Created by potrace 1.14, written by Peter Selinger 2001-2017
</metadata>
<g transform="translate(0.000000,260.000000) scale(0.100000,-0.100000)"
fill="#000000" stroke="none">
<path d="M1324 2460 c-27 -11 -31 -16 -38 -60 -11 -70 -16 -86 -39 -130 -13
-26 -53 -71 -97 -109 -118 -101 -169 -190 -185 -319 -4 -33 -1 -46 15 -62 11
-11 26 -20 33 -20 24 0 57 31 57 55 0 45 40 150 71 188 17 21 56 56 86 78 86
64 150 177 166 294 8 59 -26 101 -69 85z"/>
<path d="M1516 2168 c-9 -12 -16 -34 -16 -49 0 -27 -42 -98 -67 -112 -105 -61
-183 -248 -122 -290 38 -27 89 8 89 63 0 27 32 86 61 110 10 8 33 27 51 41 66
52 121 204 88 244 -19 23 -66 19 -84 -7z"/>
<path d="M513 1579 c-93 -46 -106 -117 -68 -374 10 -72 66 -310 94 -400 52
-167 139 -345 236 -480 103 -143 76 -135 451 -135 368 0 364 -1 434 108 45 69
141 246 173 317 l18 40 64 -3 c221 -12 437 173 452 385 7 96 -10 149 -62 200
-50 47 -116 68 -203 62 l-52 -4 -1 60 c-1 145 -17 186 -87 222 -42 21 -46 21
-727 21 -651 0 -686 -1 -722 -19z m665 -196 l-3 -107 -71 -2 c-97 -3 -144 -27
-178 -92 -13 -26 -16 -67 -16 -238 -1 -205 -1 -207 25 -245 46 -70 63 -74 300
-74 235 0 248 3 295 73 24 34 25 42 27 231 1 111 -2 213 -8 234 -6 21 -25 55
-44 75 l-34 37 -92 0 -92 0 1 95 c0 52 1 101 1 108 1 9 70 12 309 12 378 0
347 14 339 -157 -7 -157 -50 -311 -155 -568 -34 -83 -159 -323 -204 -393 l-48
-72 -77 -1 c-43 0 -177 0 -298 0 l-220 0 -33 38 c-44 50 -130 189 -174 283
-53 113 -86 210 -124 367 -68 281 -87 436 -60 479 l16 24 311 0 310 0 -3 -107z
m1032 -203 c38 -16 55 -53 54 -119 -1 -133 -109 -257 -256 -297 -61 -16 -108
-18 -108 -5 0 5 16 51 36 103 19 51 51 145 69 208 31 108 35 115 61 121 40 8
111 3 144 -11z m-798 -19 c4 0 14 -8 22 -17 13 -13 16 -45 16 -195 0 -235 16
-219 -210 -219 -187 0 -219 7 -221 49 0 14 -1 100 -1 190 -1 152 1 166 19 180
16 14 48 16 194 15 96 -1 177 -2 181 -3z"/>
</g>
</svg>
